<svg xmlns="http://www.w3.org/2000/svg" xmlns:xlink="http://www.w3.org/1999/xlink" width="136" height="140" viewBox="0 0 136 140"><defs><path id="a" d="M0 .235h135.375V140H0z"/></defs><g fill="none" fill-rule="evenodd"><g transform="translate(.663)"><mask id="b" fill="#fff"><use xlink:href="#a"/></mask><path fill="#FFF" d="M81.27 89.093c-.661.652-2.259 2.082-5.963 4.898-1.187.903-2.997 2.44-4.785 4.001l8.615-16.617c1.734 1.183 3.676 2.515 5.39 3.754-1.432.497-2.895 1.76-3.257 3.964zm50.94-33.811a50.24 50.24 0 0 0-.677-.719c-.233-.244-.825-.858-.825-.858-.719-.747-1.614-1.677-2.586-2.722-3.77-4.05-6.664-7.65-8.84-10.993-2.475-3.858-3.674-8.525-4.243-11.761a43.25 43.25 0 0 1-.629-5.634l-.122-3.064-24.052-8.252-.704 5.442c-1.194 9.228-.095 18.706 3.268 28.171 2.155 6.065 4.944 11.115 7.038 14.154-.37.51-.79 1.075-1.231 1.669l-.128.171c-.365.492-.737.993-1.095 1.485a81.316 81.316 0 0 0-2.88-2.23c-4.348-3.21-8.774-5.752-13.175-7.57V22.849c.591-.7 1.368-1.733 1.88-2.847l1.491-3.237-2.815-2.181C79.71 12.9 74.152 7.12 71.744 4.196L68.483.236l-3.48 3.768c-.874.946-2.245 2.416-3.814 4.05-2.873 2.993-5.203 5.27-6.737 6.584L51.58 17.1l1.946 3.245c.478.8.97 1.39 1.348 1.818.137.156.276.308.427.474l.089.097-.002 29.823c-5.206 2.008-9.763 4.266-13.565 6.72a51.3 51.3 0 0 0-4.027 2.88c-.027-.045-.054-.09-.08-.137l-1.134-1.908a226.003 226.003 0 0 0-1.743-2.888c4.544-6.046 7.686-13.74 9.348-22.897C45.594 26.57 45.55 19.841 45.4 16.52l-.351-7.71-6.515 4.129c-3.399 2.153-11.023 5.195-14.066 5.612l-3.592.492-.266 3.618c-.223 3.043-2.091 18.933-16.97 32.944L0 59.033l3.803 3.245C10.488 67.98 24.342 89.763 28.4 97.432l3.363 6.355 4.218-5.823c3.483-4.81 7.514-9.066 11.786-12.492-2.832 3.972-7.156 9.48-13.722 16.863l-4.44 4.99 6.3 2.215c2.422.852 6.77 3.12 11.712 6.933 6.328 4.883 11.773 10.836 16.184 17.693L67.553 140l3.768-5.824c7.714-11.92 17.163-20.179 28.086-24.548l6.62-2.648-5.258-4.816c-2.859-2.62-5.388-5.489-7.996-10.262a317.241 317.241 0 0 1 7.465 6.902l4.394 4.192 2.703-5.44a211.13 211.13 0 0 1 7.662-13.98c6.068-10.123 11.88-17.674 16.807-21.836l3.571-3.016-3.165-3.442z" mask="url(#b)"/></g><path fill="#000399" d="M132.078 57.067c-.18-.196-.398-.426-.649-.687-.232-.243-.493-.513-.778-.808-.737-.762-1.654-1.71-2.659-2.787-3.865-4.139-6.844-7.836-9.1-11.29-2.68-4.163-3.966-9.129-4.572-12.56-.477-2.7-.619-4.87-.661-5.923l-.061-1.53-20.042-6.852-.352 2.716c-2.675 20.607 7.49 37.641 10.856 41.938-.14.21-.322.475-.557.805-.468.657-1.035 1.417-1.635 2.221l-.128.171c-.952 1.277-1.816 2.448-2.455 3.414l-.373-.313c-1.14-.952-2.54-2.099-4.281-3.38-4.673-3.437-9.415-6.07-14.109-7.835V22.323c.686-.721 1.596-1.857 2.09-2.926l.746-1.615-1.41-1.089c-2.32-1.79-7.981-7.65-10.514-10.716L69.8 4l-1.743 1.881c-.883.953-2.268 2.434-3.849 4.075-2.929 3.04-5.317 5.364-6.905 6.721l-1.439 1.229.975 1.62a9.919 9.919 0 0 0 1.107 1.484c.13.146.259.288.39.43.106.117.213.234.32.354.14.158.261.3.37.437l-.002 32.148c-5.677 2.084-10.59 4.45-14.614 7.04a48.937 48.937 0 0 0-4.305 3.107c-.571.461-1.08.894-1.529 1.28-.416-.692-.912-1.526-1.424-2.387-.37-.621-.753-1.266-1.132-1.9-1.31-2.192-2.078-3.432-2.56-4.166 11.344-13.839 11.354-34.347 11.078-40.394l-.176-3.848-3.263 2.06c-3.666 2.316-11.648 5.474-14.984 5.93l-1.799.245-.133 1.806c-.234 3.183-2.19 19.797-17.697 34.351l-1.823 1.71 1.905 1.62c7.01 5.96 20.918 27.755 25.163 35.749l1.684 3.172 2.112-2.907c5.833-8.026 13.27-14.634 20.71-18.461-1.436 3.315-6.303 11.217-19.159 25.624l-2.223 2.49 3.155 1.106c2.59.907 7.196 3.291 12.357 7.26 6.541 5.03 12.169 11.161 16.725 18.222l1.88 2.912 1.887-2.907c7.983-12.295 17.8-20.83 29.18-25.366l3.315-1.322-2.632-2.404c-3.74-3.416-6.942-7.22-10.408-14.686l-.024-.053-.027-.052c-.9-1.7-2.232-1.883-2.763-1.883-.231 0-.458.031-.666.091-.596.17-1.927.781-1.97 2.851-.441.546-1.91 2.018-6.776 5.705-2.155 1.633-6.523 5.506-8.767 7.517l-1.907-1.458 12.329-23.702c.475.325.992.676 1.543 1.05 2.766 1.88 6.209 4.22 8.485 6.019 4.687 3.7 10.988 9.61 13.48 11.98l2.2 2.092 1.354-2.715c1.06-2.127 3.939-7.76 7.759-14.11 6.203-10.315 12.189-18.045 17.31-22.357l1.789-1.506-1.585-1.717z"/><path fill="#FFF" d="M67.092 133.088c-4.556-7.06-10.184-13.192-16.725-18.222-5.161-3.969-9.768-6.353-12.357-7.26l-3.155-1.105 2.223-2.491C49.934 89.602 54.801 81.7 56.236 78.386c-7.44 3.827-14.876 10.435-20.709 18.461l-2.112 2.907-1.684-3.172c-4.245-7.994-18.153-29.788-25.163-35.748l-1.905-1.62 1.823-1.71c15.507-14.555 17.463-31.17 17.697-34.352l.133-1.806 1.8-.246c3.335-.455 11.317-3.613 14.983-5.929l3.263-2.06.176 3.848c.276 6.047.266 26.555-11.079 40.394.483.734 1.251 1.974 2.56 4.166.38.634.763 1.279 1.133 1.9.512.86 1.008 1.695 1.424 2.387.448-.387.957-.819 1.53-1.28a49.107 49.107 0 0 1 4.304-3.106c4.025-2.59 8.937-4.957 14.614-7.042l.001-32.148a10.334 10.334 0 0 0-.37-.436c-.106-.12-.213-.237-.32-.354-.13-.142-.26-.284-.39-.43a9.944 9.944 0 0 1-1.107-1.484l-.974-1.62 1.439-1.23c1.588-1.356 3.976-3.68 6.905-6.72 1.58-1.641 2.966-3.122 3.85-4.075L69.8 4l1.633 1.977c2.534 3.066 8.196 8.925 10.515 10.716l1.41 1.089-.746 1.615c-.494 1.07-1.404 2.205-2.09 2.926v32.043c4.694 1.766 9.436 4.4 14.108 7.836a85.728 85.728 0 0 1 4.282 3.38l.373.313c.64-.966 1.503-2.137 2.455-3.414l.128-.17c.6-.805 1.167-1.565 1.635-2.222.235-.33.417-.595.557-.806-3.367-4.296-13.531-21.33-10.856-41.937l.352-2.716 20.041 6.853.062 1.529c.042 1.053.184 3.223.661 5.922.606 3.432 1.892 8.398 4.573 12.561 2.255 3.454 5.234 7.15 9.1 11.29 1.004 1.077 1.921 2.025 2.658 2.787.285.295.546.565.778.808.25.26.469.491.65.687l1.584 1.717-1.789 1.506c-5.121 4.311-11.107 12.042-17.31 22.357a213.031 213.031 0 0 0-7.76 14.11l-1.353 2.715-2.2-2.093c-2.492-2.369-8.793-8.28-13.48-11.98-2.276-1.797-5.719-4.137-8.485-6.018l-1.543-1.05-12.329 23.702 1.907 1.458c2.244-2.01 6.612-5.884 8.767-7.517 4.867-3.687 6.335-5.16 6.776-5.705.043-2.07 1.374-2.681 1.97-2.851.208-.06.435-.092.666-.092.53 0 1.863.184 2.763 1.884l.027.052.024.053c3.466 7.466 6.667 11.27 10.408 14.686l2.632 2.404-3.315 1.322c-11.38 4.536-21.197 13.07-29.18 25.366L68.971 136l-1.879-2.912z"/><path fill="#000399" d="M88.31 90.202c3.533 7.606 6.93 11.764 10.98 15.46C82.08 112.52 72.337 126.734 68.915 132c-10.828-16.768-25.25-24.699-30.371-26.492 18.176-20.356 21.063-28.35 20.189-29.366l-.157-.78-1.058-.232c-9.167 3.998-17.859 11.875-24.04 20.375-4.16-7.829-18.386-30.245-25.814-36.556C23.69 43.917 25.858 26.932 26.149 22.983c3.69-.503 12.028-3.801 15.956-6.28.274 5.998.268 26.515-11.25 39.779l-.524.603.515.611c.404.48 1.644 2.507 3.016 4.8 1.347 2.253 2.742 4.627 3.403 5.665l.584.917.824-.712c.69-.596 1.54-1.363 2.647-2.255a46.856 46.856 0 0 1 4.13-2.977c3.38-2.175 8.161-4.684 15.093-7.159l.622-.222.001-34.59-.17-.242c-.251-.356-.509-.664-.768-.955-.236-.266-.474-.518-.71-.784a7.697 7.697 0 0 1-.87-1.16c2.014-1.719 4.777-4.491 7.098-6.898A302.135 302.135 0 0 0 69.644 7c2.664 3.223 8.465 9.211 10.925 11.108-.42.909-1.38 2.07-2.007 2.65l-.3.278V55.74l.625.22c5.886 2.081 10.895 5.254 14.467 7.879a84.063 84.063 0 0 1 4.193 3.308c.506.423.9.756 1.172.972.17.136.305.233.398.291.71.445 1.295.002 1.463-.328.49-.962 1.754-2.676 3.063-4.43.646-.866 1.28-1.713 1.8-2.44.507-.711.957-1.38 1.178-1.848l.277-.586-.453-.465c-2.214-2.27-13.727-19.685-10.953-41.037l16.069 5.491c.043 1.078.191 3.386.697 6.247.701 3.967 2.103 9.069 4.918 13.438 2.936 4.495 6.562 8.628 9.39 11.654 1.41 1.51 2.63 2.75 3.474 3.63.242.252.45.472.623.66-6.536 5.498-13.01 14.929-17.873 23.01a215.168 215.168 0 0 0-7.882 14.325c-2.388-2.269-8.887-8.367-13.701-12.165-3.339-2.635-9.01-6.334-11.67-8.205-.315-.222-1.095.468-1.095.468l-13.968 26.837 4.902 3.747s7.174-6.498 10.056-8.68c5.818-4.405 7.402-6.086 7.69-6.901.085-.24-.193-1.164.354-1.32.085-.024.47 0 .834.69"/><path stroke="#231F20" stroke-linecap="square" stroke-linejoin="round" stroke-width="1.6" d="M92.6 16.333l.36-2.62 20.52 7.01.05 1.499c.03.906.155 3.198.667 6.09.672 3.796 1.99 8.517 4.545 12.48 2.81 4.297 6.306 8.289 9.088 11.265 1.398 1.495 2.606 2.724 3.443 3.596.38.396.686.72.905.97l1.485 1.682-1.732 1.43c-6.245 5.154-12.62 14.364-17.522 22.506a210.842 210.842 0 0 0-7.949 14.476l-1.316 2.66-2.151-2.05c-2.051-1.954-8.83-8.35-13.792-12.264-2.881-2.273-7.291-5.368-9.853-7.141l-12.082 23.516 1.589 1.214c2.202-1.97 6.523-5.792 8.645-7.398 2.935-2.222 4.461-3.47 5.31-4.242.418-.381.663-.64.828-.835.153-.183.244-.32.338-.456.031-.121.134-.558.298-1.041.183-.542.48-1.245.885-1.581 1.874-1.387 4.166-.292 4.91 1.46 3.478 7.472 6.75 11.347 10.702 14.892l2.637 2.364-3.306 1.28c-17.154 6.644-26.627 21.217-29.744 26.043L68.509 136l-1.83-2.874c-10.84-17.014-25.498-24.634-29.637-25.922l-3.626-1.651s7.811-4.987 22.473-26.59c-10.45 4.042-23.253 20.684-23.253 20.684S26.397 83.95 5.602 60.277l-1.939-1.578L5.495 57C21.441 42.208 23.22 25.395 23.412 22.32l.115-1.834 1.835-.193c3.175-.335 18.589-8.467 18.589-8.467s4.99 28.228-10.705 44.99c.669 1.024 1.585 2.542 2.472 4.025.851 1.422 1.721 2.894 2.409 4.038a49.353 49.353 0 0 1 5.648-4.218c3.368-2.166 7.999-4.606 14.527-7.012l.001-31.905a9.13 9.13 0 0 0-.307-.369c-.237-.266-.476-.518-.711-.784a9.84 9.84 0 0 1-1.31-1.822l-.864-1.564 1.37-1.15c1.909-1.6 4.688-4.38 7.084-6.864a296.18 296.18 0 0 0 4.095-4.336L69.375 3l1.59 1.962c2.556 3.155 8.716 9.49 10.855 11.058l1.335.979-.588 1.545c-.448 1.178-1.447 2.464-2.228 3.295v31.799c5.73 2.176 10.57 5.268 14.034 7.814a86.08 86.08 0 0 1 4.302 3.393l.159.133c.673-.995 1.526-2.14 2.313-3.196.633-.847 1.255-1.677 1.763-2.389.171-.24.322-.456.45-.647-3.627-4.664-13.595-21.797-10.76-42.413z"/></g></svg>